<mxfile host="app.diagrams.net" modified="2020-11-14T15:03:24.563Z" agent="5.0 (Windows NT 10.0; Win64; x64) AppleWebKit/537.36 (KHTML, like Gecko) Chrome/86.0.4240.193 Safari/537.36" etag="TGcHRNrSm8vfp2GwOcMd" version="13.9.7" type="github">
  <diagram id="C5RBs43oDa-KdzZeNtuy" name="Page-1">
    <mxGraphModel dx="1088" dy="516" grid="1" gridSize="10" guides="1" tooltips="1" connect="1" arrows="1" fold="1" page="1" pageScale="1" pageWidth="827" pageHeight="1169" math="0" shadow="0">
      <root>
        <mxCell id="WIyWlLk6GJQsqaUBKTNV-0" />
        <mxCell id="WIyWlLk6GJQsqaUBKTNV-1" parent="WIyWlLk6GJQsqaUBKTNV-0" />
        <mxCell id="1wRa1krC6lgzml-7aAer-7" value="" style="endArrow=open;shadow=0;strokeWidth=1;rounded=0;endFill=1;edgeStyle=elbowEdgeStyle;elbow=vertical;exitX=1;exitY=0.5;exitDx=0;exitDy=0;entryX=0;entryY=0.5;entryDx=0;entryDy=0;" edge="1" parent="WIyWlLk6GJQsqaUBKTNV-1" source="1wRa1krC6lgzml-7aAer-17" target="1wRa1krC6lgzml-7aAer-20">
          <mxGeometry x="0.5" y="41" relative="1" as="geometry">
            <mxPoint x="370" y="355" as="sourcePoint" />
            <mxPoint x="498" y="349" as="targetPoint" />
            <mxPoint x="-40" y="32" as="offset" />
          </mxGeometry>
        </mxCell>
        <mxCell id="1wRa1krC6lgzml-7aAer-8" value="*" style="resizable=0;align=left;verticalAlign=bottom;labelBackgroundColor=none;fontSize=21;" connectable="0" vertex="1" parent="1wRa1krC6lgzml-7aAer-7">
          <mxGeometry x="-1" relative="1" as="geometry">
            <mxPoint y="-9" as="offset" />
          </mxGeometry>
        </mxCell>
        <mxCell id="1wRa1krC6lgzml-7aAer-9" value="1" style="resizable=0;align=right;verticalAlign=bottom;labelBackgroundColor=none;fontSize=15;" connectable="0" vertex="1" parent="1wRa1krC6lgzml-7aAer-7">
          <mxGeometry x="1" relative="1" as="geometry">
            <mxPoint x="-10" y="1" as="offset" />
          </mxGeometry>
        </mxCell>
        <mxCell id="1wRa1krC6lgzml-7aAer-10" value="descibe-by" style="text;html=1;resizable=0;points=[];;align=center;verticalAlign=middle;labelBackgroundColor=none;rounded=0;shadow=0;strokeWidth=1;fontSize=12;" vertex="1" connectable="0" parent="1wRa1krC6lgzml-7aAer-7">
          <mxGeometry x="0.5" y="49" relative="1" as="geometry">
            <mxPoint x="-38" y="40" as="offset" />
          </mxGeometry>
        </mxCell>
        <mxCell id="1wRa1krC6lgzml-7aAer-16" value="Flight" style="swimlane;fontStyle=0;childLayout=stackLayout;horizontal=1;startSize=26;fillColor=none;horizontalStack=0;resizeParent=1;resizeParentMax=0;resizeLast=0;collapsible=1;marginBottom=0;fontSize=15;" vertex="1" parent="WIyWlLk6GJQsqaUBKTNV-1">
          <mxGeometry x="280" y="330" width="90" height="78" as="geometry" />
        </mxCell>
        <mxCell id="1wRa1krC6lgzml-7aAer-17" value="date" style="text;strokeColor=none;fillColor=none;align=left;verticalAlign=top;spacingLeft=4;spacingRight=4;overflow=hidden;rotatable=0;points=[[0,0.5],[1,0.5]];portConstraint=eastwest;" vertex="1" parent="1wRa1krC6lgzml-7aAer-16">
          <mxGeometry y="26" width="90" height="26" as="geometry" />
        </mxCell>
        <mxCell id="1wRa1krC6lgzml-7aAer-18" value="time" style="text;strokeColor=none;fillColor=none;align=left;verticalAlign=top;spacingLeft=4;spacingRight=4;overflow=hidden;rotatable=0;points=[[0,0.5],[1,0.5]];portConstraint=eastwest;" vertex="1" parent="1wRa1krC6lgzml-7aAer-16">
          <mxGeometry y="52" width="90" height="26" as="geometry" />
        </mxCell>
        <mxCell id="1wRa1krC6lgzml-7aAer-20" value="FlightDesciption" style="swimlane;fontStyle=0;childLayout=stackLayout;horizontal=1;startSize=26;fillColor=none;horizontalStack=0;resizeParent=1;resizeParentMax=0;resizeLast=0;collapsible=1;marginBottom=0;fontSize=15;strokeWidth=2;" vertex="1" parent="WIyWlLk6GJQsqaUBKTNV-1">
          <mxGeometry x="540" y="323" width="180" height="52" as="geometry" />
        </mxCell>
        <mxCell id="1wRa1krC6lgzml-7aAer-21" value="number" style="text;strokeColor=none;fillColor=none;align=left;verticalAlign=top;spacingLeft=4;spacingRight=4;overflow=hidden;rotatable=0;points=[[0,0.5],[1,0.5]];portConstraint=eastwest;" vertex="1" parent="1wRa1krC6lgzml-7aAer-20">
          <mxGeometry y="26" width="180" height="26" as="geometry" />
        </mxCell>
        <mxCell id="1wRa1krC6lgzml-7aAer-29" style="rounded=0;orthogonalLoop=1;jettySize=auto;html=1;entryX=0.493;entryY=1.027;entryDx=0;entryDy=0;entryPerimeter=0;fontSize=20;endArrow=none;endFill=0;exitX=0.42;exitY=0.003;exitDx=0;exitDy=0;exitPerimeter=0;" edge="1" parent="WIyWlLk6GJQsqaUBKTNV-1" source="1wRa1krC6lgzml-7aAer-25" target="1wRa1krC6lgzml-7aAer-21">
          <mxGeometry relative="1" as="geometry" />
        </mxCell>
        <mxCell id="1wRa1krC6lgzml-7aAer-25" value="Airport" style="swimlane;fontStyle=0;childLayout=stackLayout;horizontal=1;startSize=26;fillColor=none;horizontalStack=0;resizeParent=1;resizeParentMax=0;resizeLast=0;collapsible=1;marginBottom=0;strokeWidth=2;fontSize=15;" vertex="1" parent="WIyWlLk6GJQsqaUBKTNV-1">
          <mxGeometry x="600" y="490" width="70" height="52" as="geometry" />
        </mxCell>
        <mxCell id="1wRa1krC6lgzml-7aAer-27" value="name" style="text;strokeColor=none;fillColor=none;align=left;verticalAlign=top;spacingLeft=4;spacingRight=4;overflow=hidden;rotatable=0;points=[[0,0.5],[1,0.5]];portConstraint=eastwest;" vertex="1" parent="1wRa1krC6lgzml-7aAer-25">
          <mxGeometry y="26" width="70" height="26" as="geometry" />
        </mxCell>
        <mxCell id="1wRa1krC6lgzml-7aAer-30" value="*" style="resizable=0;align=left;verticalAlign=bottom;labelBackgroundColor=none;fontSize=21;" connectable="0" vertex="1" parent="WIyWlLk6GJQsqaUBKTNV-1">
          <mxGeometry x="630" y="400" as="geometry" />
        </mxCell>
        <mxCell id="1wRa1krC6lgzml-7aAer-32" value="1" style="resizable=0;align=right;verticalAlign=bottom;labelBackgroundColor=none;fontSize=15;" connectable="0" vertex="1" parent="WIyWlLk6GJQsqaUBKTNV-1">
          <mxGeometry x="497" y="323" as="geometry">
            <mxPoint x="144" y="156" as="offset" />
          </mxGeometry>
        </mxCell>
        <mxCell id="1wRa1krC6lgzml-7aAer-33" value="describes-flights-to" style="text;html=1;resizable=0;points=[];;align=center;verticalAlign=middle;labelBackgroundColor=none;rounded=0;shadow=0;strokeWidth=1;fontSize=12;" vertex="1" connectable="0" parent="WIyWlLk6GJQsqaUBKTNV-1">
          <mxGeometry x="680" y="440" as="geometry">
            <mxPoint x="-14" y="-8" as="offset" />
          </mxGeometry>
        </mxCell>
        <mxCell id="1wRa1krC6lgzml-7aAer-46" style="edgeStyle=none;rounded=0;orthogonalLoop=1;jettySize=auto;html=1;entryX=0.419;entryY=1.069;entryDx=0;entryDy=0;entryPerimeter=0;endArrow=none;endFill=0;fontSize=15;" edge="1" parent="WIyWlLk6GJQsqaUBKTNV-1" source="1wRa1krC6lgzml-7aAer-34" target="1wRa1krC6lgzml-7aAer-18">
          <mxGeometry relative="1" as="geometry" />
        </mxCell>
        <mxCell id="1wRa1krC6lgzml-7aAer-34" value="Order" style="swimlane;fontStyle=0;childLayout=stackLayout;horizontal=1;startSize=26;fillColor=none;horizontalStack=0;resizeParent=1;resizeParentMax=0;resizeLast=0;collapsible=1;marginBottom=0;strokeWidth=2;fontSize=15;align=left;" vertex="1" parent="WIyWlLk6GJQsqaUBKTNV-1">
          <mxGeometry x="150" y="470" width="140" height="104" as="geometry" />
        </mxCell>
        <mxCell id="1wRa1krC6lgzml-7aAer-35" value="create_time" style="text;strokeColor=none;fillColor=none;align=left;verticalAlign=top;spacingLeft=4;spacingRight=4;overflow=hidden;rotatable=0;points=[[0,0.5],[1,0.5]];portConstraint=eastwest;" vertex="1" parent="1wRa1krC6lgzml-7aAer-34">
          <mxGeometry y="26" width="140" height="26" as="geometry" />
        </mxCell>
        <mxCell id="1wRa1krC6lgzml-7aAer-36" value="id" style="text;strokeColor=none;fillColor=none;align=left;verticalAlign=top;spacingLeft=4;spacingRight=4;overflow=hidden;rotatable=0;points=[[0,0.5],[1,0.5]];portConstraint=eastwest;" vertex="1" parent="1wRa1krC6lgzml-7aAer-34">
          <mxGeometry y="52" width="140" height="26" as="geometry" />
        </mxCell>
        <mxCell id="1wRa1krC6lgzml-7aAer-37" value="passenger" style="text;strokeColor=none;fillColor=none;align=left;verticalAlign=top;spacingLeft=4;spacingRight=4;overflow=hidden;rotatable=0;points=[[0,0.5],[1,0.5]];portConstraint=eastwest;" vertex="1" parent="1wRa1krC6lgzml-7aAer-34">
          <mxGeometry y="78" width="140" height="26" as="geometry" />
        </mxCell>
        <mxCell id="1wRa1krC6lgzml-7aAer-47" style="edgeStyle=none;rounded=0;orthogonalLoop=1;jettySize=auto;html=1;endArrow=none;endFill=0;fontSize=15;" edge="1" parent="WIyWlLk6GJQsqaUBKTNV-1" source="1wRa1krC6lgzml-7aAer-38" target="1wRa1krC6lgzml-7aAer-37">
          <mxGeometry relative="1" as="geometry" />
        </mxCell>
        <mxCell id="1wRa1krC6lgzml-7aAer-49" style="edgeStyle=none;rounded=0;orthogonalLoop=1;jettySize=auto;html=1;entryX=0.991;entryY=-0.031;entryDx=0;entryDy=0;endArrow=none;endFill=0;fontSize=15;entryPerimeter=0;" edge="1" parent="WIyWlLk6GJQsqaUBKTNV-1" source="1wRa1krC6lgzml-7aAer-38" target="1wRa1krC6lgzml-7aAer-83">
          <mxGeometry relative="1" as="geometry">
            <mxPoint x="160" y="811" as="targetPoint" />
          </mxGeometry>
        </mxCell>
        <mxCell id="1wRa1krC6lgzml-7aAer-38" value="Customer" style="swimlane;fontStyle=0;childLayout=stackLayout;horizontal=1;startSize=26;fillColor=none;horizontalStack=0;resizeParent=1;resizeParentMax=0;resizeLast=0;collapsible=1;marginBottom=0;strokeWidth=2;fontSize=15;align=left;" vertex="1" parent="WIyWlLk6GJQsqaUBKTNV-1">
          <mxGeometry x="497" y="630" width="140" height="130" as="geometry" />
        </mxCell>
        <mxCell id="1wRa1krC6lgzml-7aAer-39" value="name" style="text;strokeColor=none;fillColor=none;align=left;verticalAlign=top;spacingLeft=4;spacingRight=4;overflow=hidden;rotatable=0;points=[[0,0.5],[1,0.5]];portConstraint=eastwest;" vertex="1" parent="1wRa1krC6lgzml-7aAer-38">
          <mxGeometry y="26" width="140" height="26" as="geometry" />
        </mxCell>
        <mxCell id="1wRa1krC6lgzml-7aAer-40" value="idendity" style="text;strokeColor=none;fillColor=none;align=left;verticalAlign=top;spacingLeft=4;spacingRight=4;overflow=hidden;rotatable=0;points=[[0,0.5],[1,0.5]];portConstraint=eastwest;" vertex="1" parent="1wRa1krC6lgzml-7aAer-38">
          <mxGeometry y="52" width="140" height="26" as="geometry" />
        </mxCell>
        <mxCell id="1wRa1krC6lgzml-7aAer-41" value="age" style="text;strokeColor=none;fillColor=none;align=left;verticalAlign=top;spacingLeft=4;spacingRight=4;overflow=hidden;rotatable=0;points=[[0,0.5],[1,0.5]];portConstraint=eastwest;" vertex="1" parent="1wRa1krC6lgzml-7aAer-38">
          <mxGeometry y="78" width="140" height="26" as="geometry" />
        </mxCell>
        <mxCell id="1wRa1krC6lgzml-7aAer-69" value="phone" style="text;strokeColor=none;fillColor=none;align=left;verticalAlign=top;spacingLeft=4;spacingRight=4;overflow=hidden;rotatable=0;points=[[0,0.5],[1,0.5]];portConstraint=eastwest;" vertex="1" parent="1wRa1krC6lgzml-7aAer-38">
          <mxGeometry y="104" width="140" height="26" as="geometry" />
        </mxCell>
        <mxCell id="1wRa1krC6lgzml-7aAer-48" style="edgeStyle=none;rounded=0;orthogonalLoop=1;jettySize=auto;html=1;entryX=0.313;entryY=0.989;entryDx=0;entryDy=0;entryPerimeter=0;endArrow=none;endFill=0;fontSize=15;" edge="1" parent="WIyWlLk6GJQsqaUBKTNV-1" source="1wRa1krC6lgzml-7aAer-42" target="1wRa1krC6lgzml-7aAer-37">
          <mxGeometry relative="1" as="geometry" />
        </mxCell>
        <mxCell id="1wRa1krC6lgzml-7aAer-42" value="Payment" style="swimlane;fontStyle=0;childLayout=stackLayout;horizontal=1;startSize=26;fillColor=none;horizontalStack=0;resizeParent=1;resizeParentMax=0;resizeLast=0;collapsible=1;marginBottom=0;strokeWidth=2;fontSize=15;align=left;" vertex="1" parent="WIyWlLk6GJQsqaUBKTNV-1">
          <mxGeometry x="130" y="660" width="140" height="90" as="geometry" />
        </mxCell>
        <mxCell id="1wRa1krC6lgzml-7aAer-82" value="total money" style="text;strokeColor=none;fillColor=none;align=left;verticalAlign=top;spacingLeft=4;spacingRight=4;overflow=hidden;rotatable=0;points=[[0,0.5],[1,0.5]];portConstraint=eastwest;" vertex="1" parent="1wRa1krC6lgzml-7aAer-42">
          <mxGeometry y="26" width="140" height="34" as="geometry" />
        </mxCell>
        <mxCell id="1wRa1krC6lgzml-7aAer-83" value="be paied" style="text;strokeColor=none;fillColor=none;align=left;verticalAlign=top;spacingLeft=4;spacingRight=4;overflow=hidden;rotatable=0;points=[[0,0.5],[1,0.5]];portConstraint=eastwest;" vertex="1" parent="1wRa1krC6lgzml-7aAer-42">
          <mxGeometry y="60" width="140" height="30" as="geometry" />
        </mxCell>
        <mxCell id="1wRa1krC6lgzml-7aAer-55" style="edgeStyle=none;rounded=0;orthogonalLoop=1;jettySize=auto;html=1;entryX=0.02;entryY=0.238;entryDx=0;entryDy=0;entryPerimeter=0;endArrow=none;endFill=0;fontSize=15;" edge="1" parent="WIyWlLk6GJQsqaUBKTNV-1" source="1wRa1krC6lgzml-7aAer-50" target="1wRa1krC6lgzml-7aAer-27">
          <mxGeometry relative="1" as="geometry" />
        </mxCell>
        <mxCell id="1wRa1krC6lgzml-7aAer-50" value="Ledger" style="swimlane;fontStyle=0;childLayout=stackLayout;horizontal=1;startSize=26;fillColor=none;horizontalStack=0;resizeParent=1;resizeParentMax=0;resizeLast=0;collapsible=1;marginBottom=0;strokeWidth=2;fontSize=15;align=left;" vertex="1" parent="WIyWlLk6GJQsqaUBKTNV-1">
          <mxGeometry x="380" y="496" width="90" height="52" as="geometry" />
        </mxCell>
        <mxCell id="1wRa1krC6lgzml-7aAer-56" style="edgeStyle=none;rounded=0;orthogonalLoop=1;jettySize=auto;html=1;endArrow=none;endFill=0;fontSize=15;exitX=0;exitY=0.5;exitDx=0;exitDy=0;" edge="1" parent="WIyWlLk6GJQsqaUBKTNV-1">
          <mxGeometry relative="1" as="geometry">
            <mxPoint x="380" y="524" as="sourcePoint" />
            <mxPoint x="290" y="522" as="targetPoint" />
          </mxGeometry>
        </mxCell>
        <mxCell id="1wRa1krC6lgzml-7aAer-66" style="edgeStyle=none;rounded=0;orthogonalLoop=1;jettySize=auto;html=1;endArrow=block;endFill=0;fontSize=15;entryX=0.717;entryY=1.018;entryDx=0;entryDy=0;entryPerimeter=0;" edge="1" parent="WIyWlLk6GJQsqaUBKTNV-1" source="1wRa1krC6lgzml-7aAer-57" target="1wRa1krC6lgzml-7aAer-83">
          <mxGeometry relative="1" as="geometry">
            <mxPoint x="123.09677419354853" y="838.0000000000002" as="targetPoint" />
          </mxGeometry>
        </mxCell>
        <mxCell id="1wRa1krC6lgzml-7aAer-57" value="WeiChat" style="swimlane;fontStyle=0;childLayout=stackLayout;horizontal=1;startSize=26;fillColor=none;horizontalStack=0;resizeParent=1;resizeParentMax=0;resizeLast=0;collapsible=1;marginBottom=0;strokeWidth=2;fontSize=15;align=left;" vertex="1" parent="WIyWlLk6GJQsqaUBKTNV-1">
          <mxGeometry x="50" y="780" width="140" height="52" as="geometry" />
        </mxCell>
        <mxCell id="1wRa1krC6lgzml-7aAer-68" style="edgeStyle=none;rounded=0;orthogonalLoop=1;jettySize=auto;html=1;endArrow=block;endFill=0;fontSize=15;entryX=0.828;entryY=1.004;entryDx=0;entryDy=0;entryPerimeter=0;" edge="1" parent="WIyWlLk6GJQsqaUBKTNV-1" source="1wRa1krC6lgzml-7aAer-65" target="1wRa1krC6lgzml-7aAer-83">
          <mxGeometry relative="1" as="geometry">
            <mxPoint x="70.40000000000009" y="840.1600000000001" as="targetPoint" />
          </mxGeometry>
        </mxCell>
        <mxCell id="1wRa1krC6lgzml-7aAer-65" value="Alipay" style="swimlane;fontStyle=0;childLayout=stackLayout;horizontal=1;startSize=26;fillColor=none;horizontalStack=0;resizeParent=1;resizeParentMax=0;resizeLast=0;collapsible=1;marginBottom=0;strokeWidth=2;fontSize=15;align=left;" vertex="1" parent="WIyWlLk6GJQsqaUBKTNV-1">
          <mxGeometry x="240" y="780" width="140" height="52" as="geometry" />
        </mxCell>
        <mxCell id="1wRa1krC6lgzml-7aAer-84" value="1....*" style="resizable=0;align=left;verticalAlign=bottom;labelBackgroundColor=none;fontSize=15;" connectable="0" vertex="1" parent="WIyWlLk6GJQsqaUBKTNV-1">
          <mxGeometry x="310" y="429.9999999999999" as="geometry" />
        </mxCell>
        <mxCell id="1wRa1krC6lgzml-7aAer-85" value="1" style="resizable=0;align=left;verticalAlign=bottom;labelBackgroundColor=none;fontSize=15;" connectable="0" vertex="1" parent="WIyWlLk6GJQsqaUBKTNV-1">
          <mxGeometry x="250" y="469.9999999999999" as="geometry" />
        </mxCell>
        <mxCell id="1wRa1krC6lgzml-7aAer-87" value="contains" style="text;html=1;resizable=0;points=[];;align=center;verticalAlign=middle;labelBackgroundColor=none;rounded=0;shadow=0;strokeWidth=1;fontSize=12;" vertex="1" connectable="0" parent="WIyWlLk6GJQsqaUBKTNV-1">
          <mxGeometry x="299.99705882352976" y="440.0041176470589" as="geometry">
            <mxPoint x="4" y="1" as="offset" />
          </mxGeometry>
        </mxCell>
        <mxCell id="1wRa1krC6lgzml-7aAer-88" value="records" style="text;html=1;resizable=0;points=[];;align=center;verticalAlign=middle;labelBackgroundColor=none;rounded=0;shadow=0;strokeWidth=1;fontSize=12;" vertex="1" connectable="0" parent="WIyWlLk6GJQsqaUBKTNV-1">
          <mxGeometry x="349.99705882352976" y="516.0041176470588" as="geometry">
            <mxPoint x="-15" y="-5" as="offset" />
          </mxGeometry>
        </mxCell>
        <mxCell id="1wRa1krC6lgzml-7aAer-89" value="records-accounts-for" style="text;html=1;resizable=0;points=[];;align=center;verticalAlign=middle;labelBackgroundColor=none;rounded=0;shadow=0;strokeWidth=1;fontSize=12;" vertex="1" connectable="0" parent="WIyWlLk6GJQsqaUBKTNV-1">
          <mxGeometry x="549.9970588235298" y="516.0041176470588" as="geometry">
            <mxPoint x="-15" y="-5" as="offset" />
          </mxGeometry>
        </mxCell>
        <mxCell id="1wRa1krC6lgzml-7aAer-90" value="paid-by" style="text;html=1;resizable=0;points=[];;align=center;verticalAlign=middle;labelBackgroundColor=none;rounded=0;shadow=0;strokeWidth=1;fontSize=12;" vertex="1" connectable="0" parent="WIyWlLk6GJQsqaUBKTNV-1">
          <mxGeometry x="359.99705882352976" y="695.0041176470588" as="geometry">
            <mxPoint x="-15" y="-5" as="offset" />
          </mxGeometry>
        </mxCell>
        <mxCell id="1wRa1krC6lgzml-7aAer-93" value="create" style="text;html=1;resizable=0;points=[];;align=center;verticalAlign=middle;labelBackgroundColor=none;rounded=0;shadow=0;strokeWidth=1;fontSize=12;" vertex="1" connectable="0" parent="WIyWlLk6GJQsqaUBKTNV-1">
          <mxGeometry x="379.99705882352976" y="610.0041176470588" as="geometry">
            <mxPoint x="-15" y="-5" as="offset" />
          </mxGeometry>
        </mxCell>
        <mxCell id="1wRa1krC6lgzml-7aAer-95" value="1" style="resizable=0;align=left;verticalAlign=bottom;labelBackgroundColor=none;fontSize=15;" connectable="0" vertex="1" parent="WIyWlLk6GJQsqaUBKTNV-1">
          <mxGeometry x="260" y="479.9999999999999" as="geometry">
            <mxPoint x="213" y="215" as="offset" />
          </mxGeometry>
        </mxCell>
        <mxCell id="1wRa1krC6lgzml-7aAer-96" value="1" style="resizable=0;align=left;verticalAlign=bottom;labelBackgroundColor=none;fontSize=15;" connectable="0" vertex="1" parent="WIyWlLk6GJQsqaUBKTNV-1">
          <mxGeometry x="270" y="489.9999999999999" as="geometry">
            <mxPoint x="4" y="224" as="offset" />
          </mxGeometry>
        </mxCell>
        <mxCell id="1wRa1krC6lgzml-7aAer-97" value="1" style="resizable=0;align=left;verticalAlign=bottom;labelBackgroundColor=none;fontSize=15;" connectable="0" vertex="1" parent="WIyWlLk6GJQsqaUBKTNV-1">
          <mxGeometry x="280" y="499.9999999999999" as="geometry">
            <mxPoint x="204" y="156" as="offset" />
          </mxGeometry>
        </mxCell>
        <mxCell id="1wRa1krC6lgzml-7aAer-98" value="1" style="resizable=0;align=left;verticalAlign=bottom;labelBackgroundColor=none;fontSize=15;" connectable="0" vertex="1" parent="WIyWlLk6GJQsqaUBKTNV-1">
          <mxGeometry x="200" y="659.9999999999999" as="geometry" />
        </mxCell>
        <mxCell id="1wRa1krC6lgzml-7aAer-99" value="*" style="resizable=0;align=left;verticalAlign=bottom;labelBackgroundColor=none;fontSize=15;" connectable="0" vertex="1" parent="WIyWlLk6GJQsqaUBKTNV-1">
          <mxGeometry x="290" y="584.9999999999999" as="geometry" />
        </mxCell>
        <mxCell id="1wRa1krC6lgzml-7aAer-100" value="1" style="resizable=0;align=left;verticalAlign=bottom;labelBackgroundColor=none;fontSize=15;" connectable="0" vertex="1" parent="WIyWlLk6GJQsqaUBKTNV-1">
          <mxGeometry x="200" y="599.9999999999999" as="geometry" />
        </mxCell>
      </root>
    </mxGraphModel>
  </diagram>
</mxfile>
